<svg width="59" height="39" viewBox="0 0 59 39" fill="none" xmlns="http://www.w3.org/2000/svg">
<path d="M5.69336 32.5784V33.1195C5.69336 34.7764 7.0365 36.1195 8.69336 36.1195H29.8901" stroke="#02375D" stroke-width="2" stroke-linecap="round"/>
<path d="M4.98218 5.12475V20.5386C17.0806 20.5386 24.7883 17.7057 30.6023 14.5187V5.12476C30.6023 3.4679 29.2591 2.12476 27.6023 2.12476H7.98218C6.32532 2.12476 4.98218 3.4679 4.98218 5.12475Z" fill="#34A5E4"/>
<path d="M10.6755 31.162H17.0806V38.2442L13.8781 36.8278L10.6755 38.2442V31.162Z" fill="#007ABC"/>
<path d="M4.98218 33.2866V21.955C17.0806 21.955 22.4181 21.2468 30.6023 17.8231V30.2866C30.6023 31.9434 29.2591 33.2866 27.6023 33.2866H4.98218Z" fill="#02375E"/>
<path d="M37.0068 6.09083L47.3026 4.82045L52.0793 0.860078C54.1569 -0.731739 55.6828 1.62993 54.1379 2.86995L49.8939 6.47852L47.3346 15.2005L45.7898 16.4405L46.2585 9.27785C39.5567 13.3749 22.514 22.2606 9.96349 21.2467C26.6946 20.0639 38.6339 10.6201 42.7001 7.86139L35.5834 7.86139L37.0068 6.09083Z" fill="#052A60"/>
<path d="M8.54004 21.6008C16.3684 23.0173 29.6809 18.5205 31.8979 17.1818C25.5971 20.9865 -12.7263 31.8221 7.25823 14.8926C2.5417 19.204 0.708226 22.6631 8.54004 21.6008Z" fill="#007ABC"/>
<rect x="9.25183" y="7.08228" width="17.0801" height="4.24935" rx="1" fill="white"/>
</svg>
