<svg width="50" height="49" viewBox="0 0 50 49" fill="none" xmlns="http://www.w3.org/2000/svg">
<ellipse cx="12.2774" cy="44.2338" rx="8.47426" ry="3.873" fill="#0A8ED8"/>
<path d="M12.2774 40.3608C7.59715 40.3608 3.8031 42.0948 3.8031 44.2338C7.56944 48.1068 18.3035 47.1847 20.7516 44.2338C20.7516 42.0948 16.9576 40.3608 12.2774 40.3608Z" fill="#0069A4"/>
<path d="M24.1418 26.7131C24.1418 33.2319 13.9727 45.156 12.0895 45.156C10.2063 45.156 0.0372314 33.2319 0.0372314 26.7131C0.0372314 20.1942 5.43322 14.9097 12.0895 14.9097C18.7458 14.9097 24.1418 20.1942 24.1418 26.7131Z" fill="#02375D"/>
<path d="M12.0895 14.9097C5.43322 14.9097 0.0372314 20.1942 0.0372314 26.7131C0.0372314 32.0687 6.90083 41.0724 10.3947 44.1153C18.4923 37.7788 29.038 22.8401 12.0895 14.9097Z" fill="#34A5E4"/>
<ellipse cx="12.0885" cy="26.7132" rx="4.5196" ry="4.42629" fill="white"/>
<ellipse cx="39.731" cy="23.7004" rx="6.62051" ry="3.01233" fill="#0A8ED8"/>
<path d="M39.731 20.6881C36.0746 20.6881 33.1105 22.0368 33.1105 23.7004C36.0529 26.7128 44.4389 25.9956 46.3515 23.7004C46.3515 22.0368 43.3874 20.6881 39.731 20.6881Z" fill="#0069A4"/>
<path d="M48.9997 10.0735C48.9997 15.1437 41.055 24.418 39.5838 24.418C38.1126 24.418 30.168 15.1437 30.168 10.0735C30.168 5.00329 34.3836 0.893066 39.5838 0.893066C44.784 0.893066 48.9997 5.00329 48.9997 10.0735Z" fill="#02375D"/>
<path d="M39.5838 0.893066C34.3836 0.893066 30.168 5.00329 30.168 10.0735C30.168 14.239 35.5302 21.2419 38.2597 23.6086C44.586 18.6802 52.8248 7.06118 39.5838 0.893066Z" fill="#34A5E4"/>
<ellipse cx="39.5855" cy="10.0734" rx="3.53094" ry="3.44267" fill="white"/>
<path d="M31.674 23.3934H30.1625C27.5651 23.3934 25.4595 25.499 25.4595 28.0964V28.0964C25.4595 30.6937 27.5651 32.7993 30.1625 32.7993H42.1519C45.3095 32.7993 47.8692 35.359 47.8692 38.5166V38.5166C47.8692 41.6741 45.3095 44.2339 42.1519 44.2339H22.0698" stroke="#1EA4E9" stroke-width="2.65714" stroke-linecap="round" stroke-dasharray="4.38 4.38"/>
</svg>
