<svg width="40" height="43" viewBox="0 0 40 43" fill="none" xmlns="http://www.w3.org/2000/svg">
<path fill-rule="evenodd" clip-rule="evenodd" d="M13.1104 24.9395C13.6114 24.1258 14.6987 23.8349 15.539 24.2899L6.23944 39.396C5.87773 38.9002 5.26986 38.5749 4.58097 38.5749C3.79544 38.5749 3.11525 38.9979 2.78525 39.6143L1.06863 38.6848C0.0300047 38.1224 -0.310018 36.8512 0.309163 35.8454L5.12781 28.018C5.74699 27.0122 7.0909 26.6528 8.12952 27.2152L10.8145 28.669L13.1104 24.9395Z" fill="#34A5E4"/>
<path d="M5.87617 40.4583C5.87617 41.0623 5.34004 41.6287 4.58089 41.6287C3.82174 41.6287 3.28561 41.0623 3.28561 40.4583C3.28561 39.8542 3.82174 39.2878 4.58089 39.2878C5.34004 39.2878 5.87617 39.8542 5.87617 40.4583Z" stroke="#132450" stroke-width="1.42571"/>
<path d="M14.1194 23.9792L16.9877 18.5992C17.0831 18.4202 17.2036 18.2556 17.3454 18.1105L21.7494 13.6048C22.3279 13.0129 23.1205 12.6793 23.948 12.6793V12.6793C24.7293 12.6793 25.4813 12.9768 26.0512 13.5112L30.269 17.4669C30.5425 17.7234 30.8787 17.9035 31.2438 17.9891L36.7109 19.2709" stroke="#132450" stroke-width="4.99" stroke-linecap="round"/>
<ellipse cx="23.822" cy="5.48302" rx="4.95163" ry="4.9536" fill="#132450"/>
<rect width="9.03248" height="15.9003" rx="4.51624" transform="matrix(0.996651 -0.0817757 0.092884 0.995677 18.9436 12.4424)" fill="#132450"/>
<rect width="3.96431" height="18.2975" rx="1.98216" transform="matrix(0.89852 -0.438933 0.485544 0.874212 23.5269 26.8043)" fill="#132450"/>
<rect width="3.96431" height="18.2975" rx="1.98216" transform="matrix(-0.89852 -0.438933 -0.485544 0.874212 25.5618 26.8043)" fill="#132450"/>
</svg>
