<svg width="40" height="40" viewBox="0 0 40 40" fill="none" xmlns="http://www.w3.org/2000/svg">
<circle cx="20" cy="20" r="20" fill="white"/>
<path d="M10.4999 12.25C10.4999 11.8358 10.8357 11.5 11.2499 11.5H11.8081C12.7586 11.5 13.3277 12.139 13.6531 12.733C13.87 13.1289 14.027 13.5882 14.1497 14.004C14.1829 14.0013 14.2166 14 14.2507 14H26.748C27.5782 14 28.1777 14.7944 27.9501 15.5928L26.1223 22.0019C25.7855 23.1832 24.7061 23.9978 23.4778 23.9978H17.5296C16.2912 23.9978 15.2055 23.1699 14.8777 21.9756L14.1172 19.2045L12.8586 14.9558L12.8566 14.9483C12.7009 14.3805 12.5547 13.85 12.3376 13.4537C12.1267 13.0688 11.9586 13 11.8081 13H11.2499C10.8357 13 10.4999 12.6642 10.4999 12.25ZM15.5727 18.8403L16.3242 21.5786C16.4732 22.1215 16.9667 22.4978 17.5296 22.4978H23.4778C24.0361 22.4978 24.5267 22.1275 24.6799 21.5906L26.4167 15.5H14.5854L15.5589 18.7868C15.5642 18.8046 15.5688 18.8224 15.5727 18.8403ZM18.9999 27C18.9999 28.1046 18.1045 29 16.9999 29C15.8953 29 14.9999 28.1046 14.9999 27C14.9999 25.8954 15.8953 25 16.9999 25C18.1045 25 18.9999 25.8954 18.9999 27ZM17.4999 27C17.4999 26.7239 17.276 26.5 16.9999 26.5C16.7237 26.5 16.4999 26.7239 16.4999 27C16.4999 27.2761 16.7237 27.5 16.9999 27.5C17.276 27.5 17.4999 27.2761 17.4999 27ZM25.9999 27C25.9999 28.1046 25.1045 29 23.9999 29C22.8953 29 21.9999 28.1046 21.9999 27C21.9999 25.8954 22.8953 25 23.9999 25C25.1045 25 25.9999 25.8954 25.9999 27ZM24.4999 27C24.4999 26.7239 24.276 26.5 23.9999 26.5C23.7238 26.5 23.4999 26.7239 23.4999 27C23.4999 27.2761 23.7238 27.5 23.9999 27.5C24.276 27.5 24.4999 27.2761 24.4999 27Z" fill="#403A63"/>
</svg>
