<svg width="1440" height="244" viewBox="0 0 1440 244" fill="none" xmlns="http://www.w3.org/2000/svg">
<rect x="-5" width="1459" height="244" fill="#1F2022"/>
<path d="M106.511 236.699L106.531 236.703L106.551 236.706C125.585 239.684 154.737 242.581 191.486 244H289.09C361.748 241.376 447.917 232.637 538.268 212.62L538.285 212.616L538.302 212.612C563.1 206.408 593.3 207.399 621.064 211.203C648.808 215.005 673.989 221.598 688.675 226.505L688.734 226.525L688.797 226.539C734.143 236.729 783.257 234.446 836.677 231.962L836.737 231.959C839.04 231.852 841.35 231.745 843.669 231.638C899.843 229.051 960.859 226.813 1027.69 238.72C1036.35 241.168 1045.34 242.868 1055.07 244H1074.22C1056.85 243.198 1042.16 241.216 1028.36 237.305L1028.3 237.287L1028.23 237.276C961.048 225.299 899.739 227.556 843.543 230.144C841.282 230.248 839.031 230.353 836.787 230.457L836.702 230.461C783.17 232.949 734.417 235.214 689.45 225.121C674.62 220.171 649.313 213.552 621.433 209.731C593.541 205.909 562.945 204.87 537.669 211.189C344.138 254.064 169.868 245.079 106.991 235.244C59.3472 226.269 29.321 211.346 19.351 193.885C9.44637 176.539 19.1571 156.278 52.3938 136.21C100.106 107.402 138.754 100.247 183.785 91.9102C191.37 90.5057 199.138 89.0677 207.16 87.4871C262.108 76.6601 328.679 59.1784 430.171 0H426.896C326.773 58.0993 260.974 75.3343 206.638 86.0407C198.653 87.614 190.908 89.0472 183.333 90.4491C138.271 98.7884 99.1924 106.02 51.1114 135.051C17.5841 155.294 7.06182 176.214 17.4839 194.467C27.839 212.602 58.6919 227.693 106.511 236.699Z" fill="#2C2E32"/>
<path d="M340.667 0C252.273 47.3061 184.522 61.0352 127.699 70.8534C123.558 71.5689 119.477 72.2634 115.452 72.9485L115.45 72.9489C70.128 80.662 31.8535 87.1757 -5 108.815L-5 106.91C31.8491 85.6341 70.1576 79.1172 114.926 71.5013C118.976 70.8124 123.079 70.1145 127.238 69.3959C183.427 59.687 250.22 46.1695 337.204 0H340.667Z" fill="#2C2E32"/>
<path d="M241.263 0C184.275 25.7911 126.018 39.5456 78.4093 48.8438C66.1492 51.2383 54.592 53.3378 43.9477 55.2703L43.7094 55.3136C33.154 57.2299 23.5066 58.9814 14.9505 60.6967C7.38565 62.2132 0.694067 63.6975 -5 65.2364L-5 63.644C0.620255 62.1501 7.13752 60.7119 14.4198 59.252C22.9993 57.532 32.6665 55.7769 43.2089 53.8629L43.464 53.8166C54.1098 51.8839 65.6507 49.7873 77.8914 47.3966C124.63 38.2683 181.527 24.8601 237.361 0H241.263Z" fill="#2C2E32"/>
<path d="M111.043 0C89.1369 6.48561 45.747 17.5217 -5 25.4161L-5 23.8862C41.981 16.5559 82.5907 6.53973 105.507 0H111.043Z" fill="#2C2E32"/>
<path d="M6.19594 0H0.848301C-1.20256 0.732821 -3.15784 1.58864 -5 2.55448L-5 4.41494C-1.65582 2.5188 2.11841 1.01595 6.19594 0Z" fill="#2C2E32"/>
<path d="M16.6969 244C8.44403 241.648 1.06032 238.005 -5 233.405L-5 231.219C2.44637 237.292 12.1873 241.801 23.2122 244H16.6969Z" fill="#2C2E32"/>
<path d="M1454 233.405C1447.94 238.005 1440.56 241.648 1432.3 244H1425.79C1436.81 241.801 1446.55 237.292 1454 231.219V233.405Z" fill="#2C2E32"/>
<path d="M1442.02 0C1446.39 1.40893 1450.42 3.27684 1454 5.52114V7.51479C1448.95 4.10937 1442.89 1.51205 1436.19 0H1442.02Z" fill="#2C2E32"/>
<path d="M1178.35 0H1172.11C1222.02 12.9198 1333.73 34.0912 1454 33.8927V32.3958C1338.29 32.5873 1230.5 12.9455 1178.35 0Z" fill="#2C2E32"/>
<path d="M1454 57.9199C1428.02 55.9415 1392.62 55.7684 1375.12 55.9994C1205.28 53.0007 1095.78 20.0431 1042.4 0H1037.96C1090.18 19.9612 1201.07 54.4262 1375.09 57.4962L1375.11 57.4966L1375.14 57.4963C1392.71 57.2638 1428.17 57.4438 1454 59.424V57.9199Z" fill="#2C2E32"/>
<path d="M1454 89.4467C1443.93 87.1239 1432.06 86.4241 1417.1 86.0521C1412.41 85.9355 1407.41 85.8513 1402.06 85.7611C1379.07 85.3741 1349.56 84.8773 1310.12 81.2361C1279.81 78.4373 1205.4 69.5248 1128.14 55.1531C1089.52 47.9674 1050.2 39.4201 1015.34 29.5948C983.883 20.731 956.112 10.8422 935.748 0L932.32 0C953.088 11.4376 981.944 21.7866 1014.61 30.9934C1049.58 40.8467 1088.98 49.4104 1127.65 56.6047C1204.99 70.9927 1279.48 79.9158 1309.87 82.7215C1349.42 86.373 1379.04 86.8715 1402.03 87.2583C1407.38 87.3482 1412.37 87.4321 1417.04 87.5482C1432.32 87.9282 1444.12 88.6552 1454 91.0168V89.4467Z" fill="#2C2E32"/>
<path d="M1454 131.674C1436.95 122.21 1415.13 118.434 1384.06 115.577C1372.66 114.529 1360.01 113.604 1345.86 112.57C1306.38 109.682 1255.3 105.947 1187.52 96.3242C1107.89 85.0195 1031.29 70.0213 968.358 52.8558C909.09 36.6882 862.096 18.6337 836.096 0H833.21C859.232 19.2598 907.244 37.7803 967.656 54.26C1030.71 71.4606 1107.43 86.4782 1187.14 97.7942C1255.02 107.431 1306.25 111.177 1345.74 114.065C1359.86 115.098 1372.47 116.02 1383.81 117.063C1415.54 119.98 1437.21 123.831 1454 133.562V131.674Z" fill="#2C2E32"/>
<path d="M689.493 0H676.943C743.145 7.65404 769.105 15.9814 785.965 24.628C791.128 27.2763 795.478 29.9832 799.894 32.7314C811.3 39.8299 823.147 47.2035 850.611 54.5516L850.626 54.5555L850.64 54.559C860.456 56.9394 870.032 59.2656 879.387 61.5379L879.441 61.5512C1079.73 110.203 1178.31 134.147 1340.96 136.089L1340.97 136.089H1340.97C1380.21 136.089 1413.19 148.98 1423.56 167.487C1428.73 176.712 1428.34 187.413 1420.2 198.776C1412.05 210.159 1396.1 222.22 1370.14 234.055C1361.43 238.026 1351.1 239.781 1340.79 239.694C1262.97 239.035 1205.53 241.123 1161.1 242.739L1161.09 242.739C1151.41 243.091 1142.34 243.421 1133.82 243.694C1130.33 243.806 1126.93 243.909 1123.62 244H1167.64C1211.15 242.426 1266.72 240.564 1340.77 241.191C1351.39 241.281 1362.11 239.473 1371.21 235.329C1397.35 223.41 1413.61 211.175 1421.99 199.476C1430.39 187.756 1430.85 176.589 1425.43 166.914C1414.62 147.624 1380.65 134.594 1340.98 134.592C1178.65 132.654 1080.35 108.777 879.971 60.1041C870.637 57.8368 861.081 55.5155 851.287 53.1403C824.193 45.8897 812.706 38.7388 801.377 31.6861C796.915 28.9083 792.477 26.1458 787.12 23.3984C770.993 15.1274 746.9 7.26049 689.493 0Z" fill="#2C2E32"/>
<path d="M547.981 0H541.082C532.284 2.22842 523.835 5.32487 515.443 9.03155C502.506 14.7461 489.652 21.9364 475.859 29.6527C472.534 31.5127 469.154 33.4035 465.705 35.3114C430.164 54.9735 386.998 76.6457 319.644 86.4646C279.701 92.2874 240.861 106.023 219.956 122.918C209.495 131.372 203.438 140.692 204.141 150.256C204.845 159.835 212.315 169.47 228.359 178.565C231.587 180.395 235.209 181.854 238.976 182.949C288.618 197.374 351.342 198.361 411.187 194.115C471.056 189.869 528.175 180.376 566.659 173.771C664.574 156.965 752.573 149.181 862.541 187.06L862.598 187.08L862.658 187.094C921.855 201.242 975.527 208.144 1025.51 213.993C1030.75 214.606 1035.95 215.207 1041.11 215.804L1041.16 215.81C1085.23 220.908 1126.47 225.679 1166.31 234.558C1169.2 235.202 1172.17 235.738 1175.21 236.018C1227.43 240.825 1282.16 224.32 1309.18 204.656C1322.66 194.849 1329.52 184.031 1325.14 174.576C1320.77 165.131 1305.39 157.527 1276.02 153.744C1251.14 150.539 1227.89 149.664 1201.66 148.679C1130.97 146.021 1038.68 142.552 834.812 90.4458C827.152 88.4878 820.008 85.269 813.746 81.4105C771.68 55.4879 716.977 37.9114 666.752 30.8715C641.636 27.3511 617.604 26.4604 596.805 28.4933C576.016 30.5252 558.378 35.4865 546.146 43.7245C507.094 70.0262 431.364 100.35 367.644 112.284C348.573 115.856 335.364 121.434 328.452 127.714C324.986 130.863 323.083 134.208 322.87 137.57C322.656 140.937 324.142 144.248 327.286 147.311C333.543 153.407 346.375 158.541 365.773 161.448C385.207 164.36 411.377 165.06 444.518 162.185C467.98 160.149 493.461 155.835 520.508 150.987C524.631 150.248 528.791 149.496 532.985 148.739L532.999 148.736C556.337 144.52 580.768 140.106 606.074 136.54C665.784 128.125 730.248 124.449 796.286 139.247C823.57 145.361 854.555 152.806 886.344 160.445L886.346 160.445C914.154 167.127 942.577 173.957 969.676 180.173C998.684 186.826 1026.14 192.768 1049.61 197.046C1073.06 201.32 1092.61 203.951 1105.77 203.951V202.454C1092.87 202.454 1073.53 199.865 1050.1 195.593C1026.68 191.325 999.272 185.394 970.276 178.743C943.258 172.546 914.836 165.717 887.013 159.031C855.182 151.383 824.136 143.923 796.874 137.814C730.386 122.915 665.549 126.634 605.694 135.069C580.333 138.643 555.844 143.068 532.508 147.284C528.311 148.042 524.151 148.794 520.03 149.532C492.978 154.381 467.607 158.674 444.281 160.698C411.287 163.561 385.342 162.853 366.176 159.981C346.974 157.103 334.72 152.077 328.9 146.406C326.005 143.586 324.705 140.613 324.894 137.64C325.083 134.662 326.772 131.613 330.024 128.658C336.547 122.732 349.277 117.269 368.142 113.735C432.16 101.745 508.194 71.3107 547.512 44.8307C559.333 36.8689 576.525 31.9854 597.071 29.9773C617.607 27.9701 641.416 28.8439 666.374 32.3422C716.296 39.3396 770.673 56.8168 812.448 82.56C818.859 86.5109 826.214 89.8322 834.15 91.8605C1038.32 144.044 1131.01 147.529 1201.73 150.188C1227.87 151.171 1251.01 152.042 1275.68 155.218C1304.91 158.984 1319.24 166.448 1323.23 175.06C1327.21 183.663 1321.09 193.891 1307.76 203.59C1281.17 222.938 1227.05 239.282 1175.46 234.533C1172.57 234.267 1169.72 233.754 1166.9 233.125C1126.91 224.214 1085.53 219.427 1041.48 214.331C1036.3 213.732 1031.09 213.129 1025.83 212.514C975.88 206.67 922.358 199.785 863.341 185.684C752.796 147.62 664.276 155.48 566.2 172.313C527.723 178.917 470.717 188.389 410.993 192.625C351.245 196.864 288.909 195.85 239.718 181.556C236.107 180.507 232.654 179.113 229.592 177.378C213.847 168.452 206.826 159.181 206.164 150.175C205.501 141.154 211.203 132.21 221.452 123.928C241.965 107.349 280.347 93.7191 320.036 87.9332C387.833 78.0498 431.29 56.2207 466.92 36.5095C470.392 34.5886 473.787 32.6895 477.121 30.8246L477.123 30.8233C490.909 23.1122 503.65 15.9847 516.483 10.3163C526.769 5.77318 537.081 2.18346 547.981 0Z" fill="#2C2E32"/>
</svg>
